<svg width="40.000000" height="40.000000" viewBox="0 0 40 40" fill="none" xmlns="http://www.w3.org/2000/svg" xmlns:xlink="http://www.w3.org/1999/xlink">
	<desc>
			Created with Pixso.
	</desc>
	<defs>
		<clipPath id="clip10_59">
			<rect id="Icons / Social / facebook" rx="-0.500000" width="23.000000" height="23.000000" transform="translate(8.500000 8.500000)" fill="white" fill-opacity="0"/>
		</clipPath>
	</defs>
	<rect id="Icon" rx="-0.500000" width="23.000000" height="23.000000" transform="translate(8.500000 8.500000)" fill="#FFFFFF" fill-opacity="0"/>
	<path id="Icon" d="M10 20.0601C10 14.5303 14.5 10.04 20 10.04C25.5 10.04 30 14.5303 30 20.0601C30.0054 22.4458 29.1577 24.7549 27.6099 26.5703C26.0623 28.3857 23.9165 29.5879 21.5601 29.96L21.5601 22.96L23.8899 22.96L24.3401 20.0601L21.5601 20.0601L21.5601 18.1802C21.5601 17.3901 21.95 16.6201 23.1899 16.6201L24.45 16.6201L24.45 14.1499C24.45 14.1499 23.3101 13.96 22.22 13.96C19.9299 13.96 18.4399 15.3398 18.4399 17.8501L18.4399 20.0601L15.8999 20.0601L15.8999 22.96L18.4399 22.96L18.4399 29.96C13.6599 29.21 10 25.0601 10 20.0601Z" clip-rule="evenodd" fill="#828282" fill-opacity="1.000000" fill-rule="evenodd"/>
</svg>
