<svg viewBox="0 0 174 64" fill="none" xmlns="http://www.w3.org/2000/svg" xmlns:xlink="http://www.w3.org/1999/xlink">
	<desc>
			Created with Pixso.
	</desc>
	<defs>
		<clipPath id="clip4_2">
			<rect id="_Слой_1" rx="-0.500000" width="173.000000" height="63.000000" transform="translate(0.500000 0.500000)" fill="white" fill-opacity="0"/>
		</clipPath>
	</defs>
	<rect id="_Слой_1" rx="-0.500000" width="173.000000" height="63.000000" transform="translate(0.500000 0.500000)" fill="#FFFFFF" fill-opacity="0"/>
	<g clip-path="url(#clip4_2)">
		<path id="Vector" d="M60.04 33.58L54.47 45.74L48.64 33.58L40.21 33.58L50.78 52.55L50.78 63.29L40.21 33.58L32.52 33.58L25.48 53.2C25.83 51.62 26 49.91 26 48.09C26 46.37 25.81 44.73 25.42 43.08C25.03 41.33 24.3 39.68 23.24 38.17L23.24 38.16C21.93 36.31 20.16 35 17.98 34.26C16.73 33.85 15.18 33.63 13.22 33.58L0 33.58L0 64L13.22 64C17.85 64 21.32 62.07 23.55 58.27C23.66 58.09 23.77 57.9 23.87 57.71L21.61 63.99L29.17 63.99L31.18 57.95L41.38 57.95L43.26 63.99L57.98 63.99L57.98 52.55L68.17 33.58L60.04 33.58L60.04 33.58ZM17.81 53.92C16.74 56.6 14.9 57.9 12.2 57.9L6.99 57.9L6.99 39.68L12.2 39.68C14.79 39.68 16.54 40.41 17.39 41.85C18.28 43.33 18.72 45.57 18.72 48.5C18.72 50.56 18.42 52.33 17.81 53.92ZM33.19 51.89L36.32 42.43L39.34 51.89L33.19 51.89Z" fill="#000000" fill-opacity="1.000000" fill-rule="nonzero"/>
		<path id="Vector" d="M45.18 24.15L45.18 17.58L59.51 17.58L59.51 11.48L59.01 11.48L45.18 11.48L45.18 6.22L60.78 6.22L60.78 0L60.29 0L38.85 0L38.64 0L38.19 0L38.14 0L31.91 0L31.51 0L27.48 17.42L27.07 19.44L26.65 17.23L23.07 0L22.67 0L16.14 0L15.73 0L12.32 17.35L11.97 19.24L11.62 17.24L7.58 0L7.18 0L0.65 0L0 0L8.66 30.41L15.15 30.41L18.8 12.8L19.37 9.78L19.92 12.8L23.58 30.41L30.27 30.41L38.14 2.5L38.14 30.41L61.52 30.41L61.52 24.15L61.02 24.15L45.18 24.15Z" fill="#000000" fill-opacity="1.000000" fill-rule="nonzero"/>
		<path id="Vector" d="M114.17 0L113.67 0L113.67 10.67C113.6 10.28 113.52 9.89 113.42 9.5C113.04 7.75 112.31 6.09 111.25 4.58L111.25 4.58C109.94 2.72 108.17 1.41 105.99 0.67C104.89 0.31 103.55 0.09 101.91 0.02C101.9 0.02 101.9 0.02 101.89 0.02C101.79 0.01 101.68 0.01 101.58 0.01C101.46 0 101.35 0 101.23 0L88 0L88 12.51L85.98 6.13L78.51 8.61L78.51 0L71.21 0L71.21 8.61L63.74 6.13L61.71 12.53L69.34 14.87L64.35 22.02L69.79 25.87L74.93 19.15L79.92 25.87L85.37 22.02L80.38 14.87L88 12.53L88 30.41L101.23 30.41C105.86 30.41 109.33 28.48 111.56 24.68C112.58 22.94 113.29 20.94 113.67 18.7L113.67 30.41L120.83 30.41L120.83 0L114.17 0L114.17 0ZM100.2 24.31L94.99 24.31L94.99 6.09L100.2 6.09C102.8 6.09 104.55 6.82 105.4 8.26C106.28 9.75 106.73 11.99 106.73 14.91C106.73 16.97 106.43 18.75 105.82 20.33C104.77 22.92 103.02 24.22 100.46 24.3C100.37 24.31 100.29 24.31 100.2 24.31ZM102.03 29.4C101.98 29.4 101.92 29.4 101.86 29.4C101.92 29.4 101.98 29.4 102.03 29.4Z" fill="#000000" fill-opacity="1.000000" fill-rule="nonzero"/>
		<path id="Vector" d="M173.52 13.71L161.34 13.71L161.34 19.33L167.74 19.33C167.43 20.78 166.74 22 165.69 22.94C164.54 23.95 163.16 24.47 161.49 24.53C161.38 24.54 161.26 24.54 161.15 24.54C161.03 24.54 160.91 24.54 160.78 24.53C159 24.45 157.45 23.79 156.06 22.52C154.58 21.19 153.83 18.84 153.83 15.55C153.83 12.25 154.53 9.77 155.91 8.14C157.32 6.55 159.04 5.77 161.15 5.77C162.29 5.77 163.32 5.97 164.21 6.35L164.21 6.35C165.78 7.03 166.79 8.27 167.18 10.04L167.27 10.41L173.98 10.41L173.91 9.88C173.58 7.05 172.28 4.66 170.02 2.79C167.89 1.05 165.11 0.11 161.74 0.01C161.52 0 161.29 0 161.07 0C160.94 0 160.81 0 160.68 0C156.62 0.08 153.28 1.51 150.77 4.24C148.6 6.64 147.33 9.7 146.99 13.37L146.99 0L140.24 0L140.24 19.18L129.24 0L122.01 0L122.01 30.41L128.75 30.41L128.75 10.89L140.04 30.41L146.99 30.41L146.99 17.58C147.33 21.25 148.59 24.22 150.74 26.42C153.21 29.08 156.41 30.43 160.25 30.43C162.62 30.43 164.64 29.92 166.25 28.92C167.01 28.46 167.85 27.74 168.75 26.77L169.24 29.69L174 29.69L174 13.71L173.52 13.71ZM160.72 4.84C160.86 4.83 161 4.83 161.15 4.83C161.01 4.83 160.86 4.83 160.72 4.84ZM161.06 29.46C161.02 29.47 160.98 29.47 160.93 29.47C160.98 29.47 161.02 29.47 161.06 29.46Z" fill="#000000" fill-opacity="1.000000" fill-rule="nonzero"/>
	</g>
</svg>
