<svg width="40.000000" height="40.000000" viewBox="0 0 40 40" fill="none" xmlns="http://www.w3.org/2000/svg" xmlns:xlink="http://www.w3.org/1999/xlink">
	<desc>
			Created with Pixso.
	</desc>
	<defs>
		<clipPath id="clip10_64">
			<rect id="Icons / Social / linkedin" rx="-0.500000" width="23.000000" height="23.000000" transform="translate(8.500000 8.500000)" fill="white" fill-opacity="0"/>
		</clipPath>
	</defs>
	<rect id="Icon" rx="-0.500000" width="23.000000" height="23.000000" transform="translate(8.500000 8.500000)" fill="#FFFFFF" fill-opacity="0"/>
	<path id="Icon" d="M28.4143 11.5859C28.0391 11.2109 27.5305 11 27 11L13 11C12.4695 11 11.9609 11.2109 11.5857 11.5859C11.2107 11.9609 11 12.4697 11 13L11 27C11 27.5303 11.2107 28.0391 11.5857 28.4141C11.9609 28.7891 12.4695 29 13 29L27 29C27.5305 29 28.0391 28.7891 28.4143 28.4141C28.7893 28.0391 29 27.5303 29 27L29 13C29 12.4697 28.7893 11.9609 28.4143 11.5859ZM16.0679 16.0679C15.7529 16.3828 15.3257 16.5601 14.8799 16.5601C13.95 16.5601 13.1899 15.8101 13.1899 14.8799C13.1899 14.4316 13.3682 14.002 13.6851 13.6851C14.002 13.3682 14.4319 13.1899 14.8799 13.1899C15.8101 13.1899 16.5601 13.9502 16.5601 14.8799C16.5601 15.3257 16.3831 15.7529 16.0679 16.0679ZM26.5 21.2002L26.5 26.5L23.71 26.5L23.71 21.5698C23.71 21.1987 23.5625 20.8428 23.3 20.5801C23.0374 20.3174 22.6814 20.1699 22.3101 20.1699C21.54 20.1699 20.9199 20.7998 20.9199 21.5698L20.9199 26.5L18.1299 26.5L18.1299 18.1299L20.9199 18.1299L20.9199 19.2402C21.3999 18.46 22.3899 17.9399 23.24 17.9399C24.1045 17.9399 24.9338 18.2837 25.5452 18.895C26.1565 19.5063 26.5 20.3354 26.5 21.2002ZM16.27 18.1299L16.27 26.5L13.5 26.5L13.5 18.1299L16.27 18.1299Z" clip-rule="evenodd" fill="#828282" fill-opacity="1.000000" fill-rule="evenodd"/>
</svg>
