<svg width="40.000000" height="40.000000" viewBox="0 0 40 40" fill="none" xmlns="http://www.w3.org/2000/svg" xmlns:xlink="http://www.w3.org/1999/xlink">
	<desc>
			Created with Pixso.
	</desc>
	<defs>
		<clipPath id="clip10_74">
			<rect id="Icons / Social / instagram" rx="-0.500000" width="23.000000" height="23.000000" transform="translate(8.500000 8.500000)" fill="white" fill-opacity="0"/>
		</clipPath>
	</defs>
	<rect id="Icon" rx="-0.500000" width="23.000000" height="23.000000" transform="translate(8.500000 8.500000)" fill="#FFFFFF" fill-opacity="0"/>
	<path id="Icon" d="M24.2 10L15.8 10C14.2617 10 12.7864 10.6108 11.6987 11.6987C10.6111 12.7866 10 14.2617 10 15.7998L10 24.2002C10 27.3999 12.6001 30 15.8 30L24.2 30C25.7383 30 27.2136 29.3892 28.3013 28.3013C29.3889 27.2134 30 25.7383 30 24.2002L30 15.7998C30 12.6001 27.3999 10 24.2 10ZM13.0544 13.0542C13.7295 12.3794 14.6453 12 15.6001 12L24.3999 12C26.3899 12 28 13.6099 28 15.6001L28 24.3999C28 25.355 27.6206 26.2705 26.9456 26.9458C26.2705 27.6206 25.3547 28 24.3999 28L15.6001 28C13.6101 28 12 26.3901 12 24.3999L12 15.6001C12 14.645 12.3794 13.7295 13.0544 13.0542ZM26.1338 13.8662C25.8994 13.6318 25.5815 13.5 25.25 13.5C24.9185 13.5 24.6006 13.6318 24.3662 13.8662C24.1316 14.1006 24 14.4185 24 14.75C24 15.0815 24.1316 15.3994 24.3662 15.6338C24.6006 15.8682 24.9185 16 25.25 16C25.5815 16 25.8994 15.8682 26.1338 15.6338C26.3684 15.3994 26.5 15.0815 26.5 14.75C26.5 14.4185 26.3684 14.1006 26.1338 13.8662ZM23.5356 16.4644C22.5979 15.5269 21.3262 15 20 15C18.6738 15 17.4021 15.5269 16.4644 16.4644C15.5269 17.4023 15 18.6738 15 20C15 21.3262 15.5269 22.5977 16.4644 23.5356C17.4021 24.4731 18.6738 25 20 25C21.3262 25 22.5979 24.4731 23.5356 23.5356C24.4731 22.5977 25 21.3262 25 20C25 18.6738 24.4731 17.4023 23.5356 16.4644ZM17.8787 17.8789C18.4414 17.3159 19.2043 17 20 17C20.7957 17 21.5586 17.3159 22.1213 17.8789C22.6838 18.4414 23 19.2046 23 20C23 20.7954 22.6838 21.5586 22.1213 22.1211C21.5586 22.6841 20.7957 23 20 23C19.2043 23 18.4414 22.6841 17.8787 22.1211C17.3162 21.5586 17 20.7954 17 20C17 19.2046 17.3162 18.4414 17.8787 17.8789Z" clip-rule="evenodd" fill="#828282" fill-opacity="1.000000" fill-rule="evenodd"/>
</svg>
