<svg width="40.000000" height="40.000000" viewBox="0 0 40 40" fill="none" xmlns="http://www.w3.org/2000/svg" xmlns:xlink="http://www.w3.org/1999/xlink">
	<desc>
			Created with Pixso.
	</desc>
	<defs>
		<clipPath id="clip10_69">
			<rect id="Icons / Social / youtube" rx="-0.500000" width="23.000000" height="23.000000" transform="translate(8.500000 8.500000)" fill="white" fill-opacity="0"/>
		</clipPath>
	</defs>
	<rect id="Icon" rx="-0.500000" width="23.000000" height="23.000000" transform="translate(8.500000 8.500000)" fill="#FFFFFF" fill-opacity="0"/>
	<path id="Icon" d="M29.8401 17.0698C29.78 16.27 29.6899 15.6401 29.5601 15.1699C29.3101 14.27 28.73 13.6899 27.8301 13.4399C26.8 13.1602 24.1899 13 20 13L18.4099 13.0601C17.3101 13.0601 16.1201 13.0898 14.8201 13.1602C13.5 13.2202 12.6399 13.3101 12.1699 13.4399C11.27 13.6899 10.6899 14.27 10.4399 15.1699C10.1599 16.2002 10 17.8101 10 20L10.0601 20.8398C10.0601 21.4399 10.0901 22.1299 10.1599 22.9302C10.22 23.73 10.3101 24.3599 10.4399 24.8301C10.6899 25.73 11.27 26.3101 12.1699 26.5601C13.2 26.8398 15.8101 27 20 27L21.5901 26.9399C22.6899 26.9399 23.8799 26.9102 25.1799 26.8398C26.5 26.7798 27.3601 26.6899 27.8301 26.5601C28.73 26.3101 29.3101 25.73 29.5601 24.8301C29.8401 23.7998 30 22.1899 30 20L29.9399 19.1602C29.9399 18.5601 29.9099 17.8701 29.8401 17.0698ZM23.1899 20L18 23L18 17L23.1899 20Z" clip-rule="evenodd" fill="#828282" fill-opacity="1.000000" fill-rule="evenodd"/>
</svg>
